<svg xmlns="http://www.w3.org/2000/svg" style="display: none;">
  <symbol id="location-icon" viewBox="0 0 24 24">
    <path d="M12 0C7.8 0 4 3.8 4 8.5c0 7.2 8 15.5 8 15.5s8-8.3 8-15.5C20 3.8 16.2 0 12 0zm0 13c-2.5 0-4.5-2-4.5-4.5S9.5 4 12 4s4.5 2 4.5 4.5S14.5 13 12 13z"/>
  </symbol>
  <symbol id="phone-icon" viewBox="0 0 24 24">
    <path d="M20 15.5c-1.2 0-2.4-.2-3.6-.6-.3-.1-.7 0-1 .2l-2.2 2.2c-2.8-1.4-5.1-3.8-6.6-6.6l2.2-2.2c.3-.3.4-.7.2-1-.3-1.1-.5-2.3-.5-3.5 0-.6-.4-1-1-1H4c-.6 0-1 .4-1 1 0 9.4 7.6 17 17 17 .6 0 1-.4 1-1v-3.5c0-.6-.4-1-1-1zM21 3h-7c-.6 0-1 .4-1 1s.4 1 1 1h5.6L12 12.6c-.4.4-.4 1 0 1.4.2.2.5.3.7.3.3 0 .5-.1.7-.3L21 6.4V12c0 .6.4 1 1 1s1-.4 1-1V4c0-.6-.4-1-1-1z"/>
  </symbol>
  <symbol id="email-icon" viewBox="0 0 24 24">
    <path d="M20 4H4c-1.1 0-2 .9-2 2v12c0 1.1.9 2 2 2h16c1.1 0 2-.9 2-2V6c0-1.1-.9-2-2-2zm0 4l-8 5-8-5V6l8 5 8-5v2z"/>
  </symbol>
  <symbol id="car-icon" viewBox="0 0 24 24">
    <path d="M18.9 7c-.2-.6-.9-1-1.5-1h-11c-.6 0-1.3.4-1.5 1L3 14v8c0 .6.4 1 1 1h1c.6 0 1-.4 1-1v-1h12v1c0 .6.4 1 1 1h1c.6 0 1-.4 1-1v-8l-2.1-7zM6.8 15c-.8 0-1.5-.7-1.5-1.5S6 12 6.8 12s1.5.7 1.5 1.5S7.6 15 6.8 15zm10.5 0c-.8 0-1.5-.7-1.5-1.5s.7-1.5 1.5-1.5 1.5.7 1.5 1.5-.7 1.5-1.5 1.5zM5.3 8h13.4l1.5 5H3.8l1.5-5z"/>
  </symbol>
  <symbol id="linkedin-icon" viewBox="0 0 24 24">
    <path d="M19 0H5C2.2 0 0 2.2 0 5v14c0 2.8 2.2 5 5 5h14c2.8 0 5-2.2 5-5V5c0-2.8-2.2-5-5-5zM8 19H5V8h3v11zM6.5 6.7c-1 0-1.8-.8-1.8-1.8s.8-1.8 1.8-1.8S8.3 4 8.3 5s-.8 1.7-1.8 1.7zM20 19h-3v-5.6c0-3.4-4-3.1-4 0V19h-3V8h3v1.8c1.4-2.6 7-2.8 7 2.5V19z"/>
  </symbol>
  <symbol id="portfolio-icon" viewBox="0 0 24 24">
    <path d="M20 6h-4V4c0-1.1-.9-2-2-2h-4c-1.1 0-2 .9-2 2v2H4c-1.1 0-2 .9-2 2v11c0 1.1.9 2 2 2h16c1.1 0 2-.9 2-2V8c0-1.1-.9-2-2-2zm-6 0h-4V4h4v2z"/>
  </symbol>
</svg>